<mxfile host="app.diagrams.net" modified="2022-01-13T22:18:09.434Z" agent="5.0 (Macintosh; Intel Mac OS X 10_15_6) AppleWebKit/605.1.15 (KHTML, like Gecko) Version/15.0 Safari/605.1.15" etag="t1IrtJW91p60YgpbZlCe" version="16.2.6" type="github">
  <diagram id="NiahCJ6EAsQBf5cnewkv" name="Page-1">
    <mxGraphModel dx="761" dy="674" grid="0" gridSize="10" guides="1" tooltips="1" connect="1" arrows="1" fold="1" page="0" pageScale="1" pageWidth="850" pageHeight="1100" math="0" shadow="0">
      <root>
        <mxCell id="0" />
        <mxCell id="1" parent="0" />
        <mxCell id="whLFaRSz3Np-lKLS9v4o-1" value="" style="rounded=0;whiteSpace=wrap;html=1;hachureGap=4;" vertex="1" parent="1">
          <mxGeometry x="40" y="109" width="160" height="198" as="geometry" />
        </mxCell>
        <mxCell id="whLFaRSz3Np-lKLS9v4o-2" value="" style="edgeStyle=entityRelationEdgeStyle;endArrow=ERzeroToMany;startArrow=ERone;endFill=1;startFill=0;rounded=0;" edge="1" parent="1" source="whLFaRSz3Np-lKLS9v4o-25" target="whLFaRSz3Np-lKLS9v4o-8">
          <mxGeometry width="100" height="100" relative="1" as="geometry">
            <mxPoint x="260" y="928" as="sourcePoint" />
            <mxPoint x="360" y="828" as="targetPoint" />
          </mxGeometry>
        </mxCell>
        <mxCell id="whLFaRSz3Np-lKLS9v4o-4" value="Orders" style="shape=table;startSize=30;container=1;collapsible=1;childLayout=tableLayout;fixedRows=1;rowLines=0;fontStyle=1;align=center;resizeLast=1;hachureGap=4;" vertex="1" parent="1">
          <mxGeometry x="370" y="328" width="250" height="136" as="geometry" />
        </mxCell>
        <mxCell id="whLFaRSz3Np-lKLS9v4o-5" value="" style="shape=partialRectangle;collapsible=0;dropTarget=0;pointerEvents=0;fillColor=none;points=[[0,0.5],[1,0.5]];portConstraint=eastwest;top=0;left=0;right=0;bottom=1;hachureGap=4;" vertex="1" parent="whLFaRSz3Np-lKLS9v4o-4">
          <mxGeometry y="30" width="250" height="30" as="geometry" />
        </mxCell>
        <mxCell id="whLFaRSz3Np-lKLS9v4o-6" value="PK" style="shape=partialRectangle;overflow=hidden;connectable=0;fillColor=none;top=0;left=0;bottom=0;right=0;fontStyle=1;hachureGap=4;" vertex="1" parent="whLFaRSz3Np-lKLS9v4o-5">
          <mxGeometry width="30" height="30" as="geometry">
            <mxRectangle width="30" height="30" as="alternateBounds" />
          </mxGeometry>
        </mxCell>
        <mxCell id="whLFaRSz3Np-lKLS9v4o-7" value="statement_idÂ int NOT NULL " style="shape=partialRectangle;overflow=hidden;connectable=0;fillColor=none;top=0;left=0;bottom=0;right=0;align=left;spacingLeft=6;fontStyle=5;hachureGap=4;" vertex="1" parent="whLFaRSz3Np-lKLS9v4o-5">
          <mxGeometry x="30" width="220" height="30" as="geometry">
            <mxRectangle width="220" height="30" as="alternateBounds" />
          </mxGeometry>
        </mxCell>
        <mxCell id="whLFaRSz3Np-lKLS9v4o-8" value="" style="shape=partialRectangle;collapsible=0;dropTarget=0;pointerEvents=0;fillColor=none;points=[[0,0.5],[1,0.5]];portConstraint=eastwest;top=0;left=0;right=0;bottom=0;hachureGap=4;" vertex="1" parent="whLFaRSz3Np-lKLS9v4o-4">
          <mxGeometry y="60" width="250" height="37" as="geometry" />
        </mxCell>
        <mxCell id="whLFaRSz3Np-lKLS9v4o-9" value="FK1" style="shape=partialRectangle;overflow=hidden;connectable=0;fillColor=none;top=0;left=0;bottom=0;right=0;hachureGap=4;" vertex="1" parent="whLFaRSz3Np-lKLS9v4o-8">
          <mxGeometry width="30" height="37" as="geometry">
            <mxRectangle width="30" height="37" as="alternateBounds" />
          </mxGeometry>
        </mxCell>
        <mxCell id="whLFaRSz3Np-lKLS9v4o-10" value="ticker_id int NOT NULL" style="shape=partialRectangle;overflow=hidden;connectable=0;fillColor=none;top=0;left=0;bottom=0;right=0;align=left;spacingLeft=6;hachureGap=4;" vertex="1" parent="whLFaRSz3Np-lKLS9v4o-8">
          <mxGeometry x="30" width="220" height="37" as="geometry">
            <mxRectangle width="220" height="37" as="alternateBounds" />
          </mxGeometry>
        </mxCell>
        <mxCell id="whLFaRSz3Np-lKLS9v4o-11" value="" style="shape=partialRectangle;collapsible=0;dropTarget=0;pointerEvents=0;fillColor=none;points=[[0,0.5],[1,0.5]];portConstraint=eastwest;top=0;left=0;right=0;bottom=0;hachureGap=4;" vertex="1" parent="whLFaRSz3Np-lKLS9v4o-4">
          <mxGeometry y="97" width="250" height="30" as="geometry" />
        </mxCell>
        <mxCell id="whLFaRSz3Np-lKLS9v4o-12" value="" style="shape=partialRectangle;overflow=hidden;connectable=0;fillColor=none;top=0;left=0;bottom=0;right=0;hachureGap=4;" vertex="1" parent="whLFaRSz3Np-lKLS9v4o-11">
          <mxGeometry width="30" height="30" as="geometry">
            <mxRectangle width="30" height="30" as="alternateBounds" />
          </mxGeometry>
        </mxCell>
        <mxCell id="whLFaRSz3Np-lKLS9v4o-13" value="order_date date NOT NULL" style="shape=partialRectangle;overflow=hidden;connectable=0;fillColor=none;top=0;left=0;bottom=0;right=0;align=left;spacingLeft=6;hachureGap=4;" vertex="1" parent="whLFaRSz3Np-lKLS9v4o-11">
          <mxGeometry x="30" width="220" height="30" as="geometry">
            <mxRectangle width="220" height="30" as="alternateBounds" />
          </mxGeometry>
        </mxCell>
        <mxCell id="whLFaRSz3Np-lKLS9v4o-24" value="ticker" style="shape=table;startSize=30;container=1;collapsible=1;childLayout=tableLayout;fixedRows=1;rowLines=0;fontStyle=1;align=center;resizeLast=1;hachureGap=4;" vertex="1" parent="1">
          <mxGeometry x="40" y="328" width="250" height="155.75" as="geometry" />
        </mxCell>
        <mxCell id="whLFaRSz3Np-lKLS9v4o-25" value="" style="shape=partialRectangle;collapsible=0;dropTarget=0;pointerEvents=0;fillColor=none;points=[[0,0.5],[1,0.5]];portConstraint=eastwest;top=0;left=0;right=0;bottom=1;hachureGap=4;" vertex="1" parent="whLFaRSz3Np-lKLS9v4o-24">
          <mxGeometry y="30" width="250" height="47" as="geometry" />
        </mxCell>
        <mxCell id="whLFaRSz3Np-lKLS9v4o-26" value="PK" style="shape=partialRectangle;overflow=hidden;connectable=0;fillColor=none;top=0;left=0;bottom=0;right=0;fontStyle=1;hachureGap=4;" vertex="1" parent="whLFaRSz3Np-lKLS9v4o-25">
          <mxGeometry width="30" height="47" as="geometry">
            <mxRectangle width="30" height="47" as="alternateBounds" />
          </mxGeometry>
        </mxCell>
        <mxCell id="whLFaRSz3Np-lKLS9v4o-27" value="ticker_id" style="shape=partialRectangle;overflow=hidden;connectable=0;fillColor=none;top=0;left=0;bottom=0;right=0;align=left;spacingLeft=6;fontStyle=5;hachureGap=4;" vertex="1" parent="whLFaRSz3Np-lKLS9v4o-25">
          <mxGeometry x="30" width="220" height="47" as="geometry">
            <mxRectangle width="220" height="47" as="alternateBounds" />
          </mxGeometry>
        </mxCell>
        <mxCell id="whLFaRSz3Np-lKLS9v4o-28" value="" style="shape=partialRectangle;collapsible=0;dropTarget=0;pointerEvents=0;fillColor=none;points=[[0,0.5],[1,0.5]];portConstraint=eastwest;top=0;left=0;right=0;bottom=0;hachureGap=4;" vertex="1" parent="whLFaRSz3Np-lKLS9v4o-24">
          <mxGeometry y="77" width="250" height="79" as="geometry" />
        </mxCell>
        <mxCell id="whLFaRSz3Np-lKLS9v4o-29" value="" style="shape=partialRectangle;overflow=hidden;connectable=0;fillColor=none;top=0;left=0;bottom=0;right=0;hachureGap=4;" vertex="1" parent="whLFaRSz3Np-lKLS9v4o-28">
          <mxGeometry width="30" height="79" as="geometry">
            <mxRectangle width="30" height="79" as="alternateBounds" />
          </mxGeometry>
        </mxCell>
        <mxCell id="whLFaRSz3Np-lKLS9v4o-30" value="Name String (Not NULL)&#xa;LastScrapeTime Time&#xa;NumTweets int (NOT NULL)&#xa;HourlySentiment float64" style="shape=partialRectangle;overflow=hidden;connectable=0;fillColor=none;top=0;left=0;bottom=0;right=0;align=left;spacingLeft=6;hachureGap=4;" vertex="1" parent="whLFaRSz3Np-lKLS9v4o-28">
          <mxGeometry x="30" width="220" height="79" as="geometry">
            <mxRectangle width="220" height="79" as="alternateBounds" />
          </mxGeometry>
        </mxCell>
      </root>
    </mxGraphModel>
  </diagram>
</mxfile>
